<svg width="170" height="21" viewBox="0 0 170 21" fill="none" xmlns="http://www.w3.org/2000/svg">
<path d="M11.808 11.44C14.34 10.652 16.04 8.55601 16.04 6.21601C16.04 3.17601 13.268 0.70401 9.864 0.70401H0V20.252H3.292V12.528H5.68C7.724 12.528 8.36 12.592 9.42 14.072L13.448 20.252H17.248L11.532 11.528L11.808 11.44ZM3.288 9.55201V3.68001H9.936C11.524 3.68001 12.752 5.26001 12.752 6.61601C12.752 8.29601 11.228 9.55201 9.868 9.55201H3.288V9.55201Z" fill="#27211F"/>
<path d="M38.632 0.712012L29.6 20.252H33.12L35.08 15.976L43.908 15.96L45.848 20.248H49.372L40.332 0.700012L38.632 0.712012ZM36.4 13L39.408 6.41201H39.56L42.56 12.996L36.4 13Z" fill="#27211F"/>
<path d="M54.668 10.464C54.668 6.564 57.828 3.38801 61.716 3.38801C63.564 3.38801 65.464 4.25201 67.064 5.82001L67.172 5.92801L69.6 3.72001L69.472 3.60001C68.176 2.40001 66.98 1.58001 65.816 1.09201C64.464 0.552006 63.044 0.268005 61.716 0.268005C60.272 0.268005 58.916 0.528006 57.572 1.06401C56.3 1.60001 55.152 2.37601 54.252 3.30801C52.312 5.20801 51.248 7.74801 51.248 10.468C51.248 13.188 52.312 15.728 54.24 17.616C55.14 18.548 56.264 19.308 57.58 19.876C58.932 20.428 60.284 20.7 61.712 20.7C63.116 20.7 64.536 20.412 65.824 19.872C67.036 19.332 68.264 18.476 69.468 17.332L69.596 17.208L67.088 15.036L66.98 15.144C65.44 16.688 63.516 17.572 61.708 17.572C57.828 17.568 54.668 14.38 54.668 10.464V10.464Z" fill="#27211F"/>
<path d="M77.472 12.116H86.852L86.844 20.252H90.2V0.70401H86.844L86.852 9.14001H77.472L77.464 0.70401H74.116V20.252H77.464L77.472 12.116Z" fill="#27211F"/>
<path d="M98.776 13.964V0.70401H95.424V13.964C95.424 14.888 95.992 20.692 103.484 20.692C110.976 20.692 111.508 14.888 111.508 13.964V0.70401H108.152L108.156 13.964C108.156 16.016 106.14 17.68 103.484 17.68C100.808 17.684 98.776 16.02 98.776 13.964V13.964Z" fill="#27211F"/>
<path d="M120.02 3.68001H129.776V0.70401H116.732V20.252H129.776V17.276H120.02V12.116H128.94V9.14001H120.02V3.68001Z" fill="#27211F"/>
<path d="M166.944 3.32401C164.936 1.35201 162.316 0.264008 159.576 0.264008C156.696 0.264008 154.024 1.38801 152.04 3.42401C150.176 5.34001 149.108 7.90801 149.108 10.464C149.108 16.012 153.9 20.696 159.572 20.696C162.412 20.696 165.076 19.556 167.08 17.48C168.96 15.532 170.04 12.976 170.04 10.464C170.04 7.86001 168.912 5.25601 166.944 3.32401V3.32401ZM159.576 17.58C155.684 17.58 152.52 14.388 152.52 10.464C152.52 6.56001 155.684 3.38001 159.576 3.38001C163.448 3.38001 166.596 6.55601 166.596 10.464C166.596 14.388 163.448 17.58 159.576 17.58Z" fill="#27211F"/>
<path d="M21.76 0.70401H25.116V20.252H21.76V0.70401Z" fill="#27211F"/>
<path d="M138.308 14.74V0.70401H134.952V14.736C134.952 17.776 137.692 20.248 141.06 20.248H148.024V17.276H141.06C139.508 17.276 138.308 16.14 138.308 14.74Z" fill="#27211F"/>
</svg>
